# xmcd
#
# Track frame offsets: 
#        150
#        16090
#        30437
#        57163
#        76483
#        93510
#        109413
#        129213
#        147838
#        161740
#        186815
#        207283
#        220140
#        234405
#        252905
#        267740
#        280943
#
# Disc length: 3897 seconds
#
# Revision: 2
# Processed by: cddbd v1.5.2PL0 Copyright (c) Steve Scherf et al.
# Submitted via: ExactAudioCopy v1.0b4
#
DISCID=ef0f3711
DTITLE=Big Rhythm Combo - Too Small To Dance
DYEAR=1994
DGENRE=Blues
TTITLE0=Let It Go
TTITLE1=(I Have) Nothing left
TTITLE2=I Can't Deny It
TTITLE3=Sure Cure For The Blues
TTITLE4=I Wanna Hug Ya Kiss Ya Squeeze Ya
TTITLE5=Don't Start Crying Now
TTITLE6=Kiss You In The Morning
TTITLE7=Cleveland, Ohio Blues
TTITLE8=Oil Can Harry
TTITLE9=I Stepped In Quicksand
TTITLE10=Susan Ann
TTITLE11=That Mellow Saxophone
TTITLE12=Song For Mister Tiny
TTITLE13=Now Or Never
TTITLE14=Tell Me That You Love Me
TTITLE15=Big Fat Mamas Are Back In Style Again
TTITLE16=Too Small To Dance
EXTD=ID3G:   0
EXTT0=
EXTT1=
EXTT2=
EXTT3=
EXTT4=
EXTT5=
EXTT6=
EXTT7=
EXTT8=
EXTT9=
EXTT10=
EXTT11=
EXTT12=
EXTT13=
EXTT14=
EXTT15=
EXTT16=
PLAYORDER=
